<?xml version="1.0" encoding="UTF-8"?>
<svg version="1.1" xmlns="http://www.w3.org/2000/svg" width="1000" height="1000">
<path d="M0 0 C330 0 660 0 1000 0 C1000 330 1000 660 1000 1000 C670 1000 340 1000 0 1000 C0 670 0 340 0 0 Z " fill="#E5D9B2" transform="translate(0,0)"/>
<path d="M0 0 C205.26 0 410.52 0 622 0 C622 53.13 622 106.26 622 161 C617.05 161 612.1 161 607 161 C606.278125 159.1025 605.55625 157.205 604.8125 155.25 C600.68868585 144.55820096 596.2970234 134.16915187 591 124 C590.60039063 123.21882813 590.20078125 122.43765625 589.7890625 121.6328125 C578.66069114 100.64574973 562.72039818 83.93567123 540.5 75.25 C483.14333337 58.04300001 420.88078733 68.39920525 361 68 C361 266 361 464 361 668 C485.82996669 675.10847971 485.82996669 675.10847971 586.65966797 621.69458008 C592.37175756 615.80803319 597.44551388 609.84094879 602 603 C602.71929688 601.94039062 603.43859375 600.88078125 604.1796875 599.7890625 C606.54467811 596.24747752 608.78994179 592.6398809 611 589 C611.41427246 588.32195313 611.82854492 587.64390625 612.25537109 586.9453125 C618.41645658 576.73991947 622.89005399 566.58001064 626.52734375 555.23046875 C627.63773075 551.82191601 629.15281119 549.07520818 631 546 C631.858516 542.90598522 631.858516 542.90598522 632.4375 539.5625 C633.34212253 534.74353593 634.5232046 530.11447049 635.90234375 525.40625 C637.95897 518.30535329 639.61969694 511.1733086 641.125 503.9375 C641.50205078 502.22143555 641.50205078 502.22143555 641.88671875 500.47070312 C644.16850522 489.55755161 644.92207625 479.31819935 646 468 C673.06 468 700.12 468 728 468 C728 495.60638298 728 495.60638298 726.125 507.6875 C725.95097656 508.90115234 725.77695312 510.11480469 725.59765625 511.36523438 C725.2523117 513.75322796 724.8975213 516.13987908 724.53222656 518.52490234 C724.17271157 520.87230436 723.82601991 523.22170091 723.49121094 525.57275391 C723.24419434 527.27890869 723.24419434 527.27890869 722.9921875 529.01953125 C722.84894043 530.02733643 722.70569336 531.0351416 722.55810547 532.07348633 C721.96595153 535.1785385 721.01994827 538.01026463 720 541 C719.4451079 543.20057904 718.91799808 545.40828958 718.4140625 547.62109375 C717.98057495 549.5084021 717.98057495 549.5084021 717.53833008 551.43383789 C717.31447128 552.41587692 717.31447128 552.41587692 717.08609009 553.41775513 C712.22928892 574.69233794 707.10984907 595.66461787 698.05078125 615.6015625 C697.30246035 617.30962582 696.59574598 619.03617457 695.91796875 620.7734375 C693.03685053 628.11595283 689.40715442 634.58463159 685.13867188 641.20800781 C683.92376022 643.11998285 682.74839476 645.05259096 681.578125 646.9921875 C676.59485121 655.21098665 671.27449429 662.6925767 665 670 C663.41322752 671.95554775 661.82987026 673.91387179 660.25 675.875 C652.17777778 685.89053498 652.17777778 685.89053498 647 688 C647 688.66 647 689.32 647 690 C644.03854652 692.7537363 640.82496635 695.20268408 637.64697266 697.70166016 C636.00976827 698.99229949 634.38555583 700.29807171 632.76171875 701.60546875 C621.25056963 710.78325346 608.94921468 716.52534421 595.38525391 722.02807617 C593.77839129 722.68282746 592.17651784 723.34994254 590.57958984 724.02856445 C581.20803309 727.94250209 571.49765551 730.02083481 561.60612702 732.20047724 C559.3955921 732.69058005 557.18715124 733.19040666 554.98261237 733.70681131 C529.56750578 739.52541682 503.76578758 738.6909225 477.84698622 738.58805556 C470.85196577 738.56137182 463.85702896 738.56476511 456.86197013 738.56873732 C443.95967331 738.57525917 431.05750593 738.55878309 418.15524673 738.52865028 C405.40244018 738.49894367 392.64968768 738.47979621 379.89684677 738.47438622 C379.10037322 738.47404252 378.30389966 738.47369882 377.48329054 738.47334471 C373.43749348 738.47165276 369.39169637 738.47014595 365.34589921 738.46871033 C336.77825172 738.45824152 308.21067443 738.42464822 279.64306641 738.37719727 C251.91064821 738.33118714 224.17824946 738.29589699 196.44580078 738.2746582 C194.69828379 738.27330499 192.9507668 738.27195147 191.20324981 738.27059764 C177.00121835 738.25965187 162.79918635 738.24943973 148.59715421 738.23940522 C83.06470293 738.19257547 17.53243513 738.09219532 -48 738 C-48 597.42 -48 456.84 -48 312 C-25.89 312 -3.78 312 19 312 C19.2624142 344.50187309 19.2624142 344.50187309 19.35571289 357.33496094 C19.36432254 358.51869584 19.36432254 358.51869584 19.37310612 359.72634459 C19.41606452 365.65089175 19.45821796 371.57544443 19.5 377.5 C19.50594854 378.34111139 19.51189708 379.18222279 19.51802588 380.0488224 C19.85386982 427.66269914 20.04604315 475.27552744 20.06640625 522.890625 C20.06688611 523.94630015 20.06736597 525.00197531 20.06786036 526.08964062 C20.08812297 573.39308524 20.03275859 620.69659566 20 668 C99.86 668 179.72 668 262 668 C262 470 262 272 262 68 C147.50002259 52.48621644 147.50002259 52.48621644 51.58984375 84.21875 C32.22396987 104.68080542 23.76388884 134.1018521 18 161 C12.06 161 6.12 161 0 161 C0 107.87 0 54.74 0 0 Z " fill="#030303" transform="translate(182,129)"/>
<path d="M0 0 C0.33 0 0.66 0 1 0 C1 1.98 1 3.96 1 6 C42.61181153 6.02318684 84.22362219 6.0406571 125.83543895 6.05106533 C130.81379525 6.05231517 135.79215153 6.05360957 140.77050781 6.05493164 C142.25637478 6.05532511 142.25637478 6.05532511 143.77225927 6.05572652 C158.57896896 6.05974581 173.38567518 6.06676295 188.19238281 6.07543945 C211.0813799 6.08868844 233.97037402 6.09652997 256.859375 6.09765625 C258.26132919 6.09775758 258.26132919 6.09775758 259.69160569 6.09786096 C307.09635 6.10096491 354.49139829 5.98392017 401.89309692 5.39606094 C443.90770803 4.87665317 485.9104877 5.06171457 527.92622828 5.37335545 C538.02476701 5.44791191 548.1233651 5.51235233 558.22197485 5.57643402 C578.81472584 5.707309 599.40738488 5.84932541 620 6 C620 4.35 620 2.7 620 1 C445.76 1 271.52 1 92 1 C92 0.67 92 0.34 92 0 C266.9 0 441.8 0 622 0 C622 53.13 622 106.26 622 161 C621.67 161 621.34 161 621 161 C621 110.84 621 60.68 621 9 C607.28864502 9.03029297 593.57729004 9.06058594 579.45043945 9.09179688 C534.93338535 9.18992827 490.41632797 9.28650916 445.89926853 9.38218227 C438.91583719 9.39719101 431.93240589 9.41221462 424.94897461 9.42724609 C423.9070702 9.42948836 423.9070702 9.42948836 422.84411722 9.43177592 C402.73456728 9.47505957 382.625019 9.51904811 362.51547204 9.56369305 C145.59961949 10.04523979 145.59961949 10.04523979 65.04029943 10.0893276 C59.79851852 10.09227282 54.55674382 10.09764717 49.3149662 10.10414124 C42.57070548 10.11242828 35.82646419 10.11557501 29.08219743 10.11462975 C26.69017393 10.11502707 24.29815002 10.11707881 21.9061296 10.12093544 C18.72383179 10.12575269 15.54159722 10.12448751 12.35929871 10.12145996 C11.43951888 10.12427113 10.51973905 10.1270823 9.57208711 10.12997866 C8.73962408 10.12788 7.90716104 10.12578134 7.04947186 10.12361908 C6.33366882 10.12389146 5.61786579 10.12416385 4.88037175 10.12444448 C3 10 3 10 0 9 C0 6.03 0 3.06 0 0 Z " fill="#141311" transform="translate(182,129)"/>
<path d="M0 0 C2.31 0 4.62 0 7 0 C7 53.13 7 106.26 7 161 C6.67 161 6.34 161 6 161 C6 110.84 6 60.68 6 9 C-30.45398692 9.03955495 -30.45398692 9.03955495 -66.90795898 9.09008789 C-73.97668457 9.09460449 -73.97668457 9.09460449 -77.29139709 9.09544373 C-79.59433689 9.09697399 -81.89727591 9.10047999 -84.20021057 9.10557556 C-87.69916159 9.11292695 -91.19806386 9.11390492 -94.69702148 9.11352539 C-95.7138951 9.1171235 -96.73076872 9.12072161 -97.77845669 9.12442875 C-103.60044024 9.11601178 -109.22526217 8.75032221 -115 8 C-115 7.67 -115 7.34 -115 7 C-105.31264374 6.82466706 -95.62514237 6.65865062 -85.9375 6.5 C-84.85008955 6.48218412 -84.85008955 6.48218412 -83.74071121 6.46400833 C-54.1585394 5.98283505 -24.58625906 5.87938488 5 6 C5 4.35 5 2.7 5 1 C3.35 1 1.7 1 0 1 C0 0.67 0 0.34 0 0 Z " fill="#46453C" transform="translate(797,129)"/>
<path d="M0 0 C0.33 0 0.66 0 1 0 C1 1.98 1 3.96 1 6 C1.68268102 5.99815641 2.36536203 5.99631283 3.06873035 5.99441338 C19.66837924 5.95027349 36.26800958 5.91716253 52.86770344 5.89637566 C60.89514077 5.88605649 68.92253896 5.87198394 76.94995117 5.84912109 C83.9454182 5.8292068 90.94085689 5.81628823 97.93635148 5.81182301 C101.64152069 5.8092123 105.34660882 5.80306275 109.05175209 5.78853989 C113.1846847 5.77247116 117.31747572 5.77201905 121.45043945 5.77294922 C122.68330185 5.76575867 123.91616425 5.75856812 125.18638611 5.75115967 C126.30959259 5.753909 127.43279907 5.75665833 128.59004211 5.75949097 C129.56806447 5.75764738 130.54608683 5.75580379 131.55374622 5.75390434 C134 6 134 6 137 8 C136 9 136 9 133.75298977 9.12304783 C132.25000631 9.12166514 132.25000631 9.12166514 130.71665955 9.12025452 C129.57095993 9.12162918 128.42526031 9.12300385 127.24484253 9.12442017 C125.34268478 9.11902725 125.34268478 9.11902725 123.40209961 9.11352539 C122.06206769 9.11324352 120.72203561 9.11340125 119.38200378 9.1139679 C115.73340562 9.11425587 112.08484005 9.1083592 108.43624949 9.10139394 C104.62722484 9.09516034 100.8181995 9.0945566 97.00917053 9.09336853 C89.79142246 9.09025523 82.57368946 9.08204186 75.35594803 9.07201904 C67.14084743 9.06085786 58.92574612 9.05534744 50.71063983 9.05032361 C33.80708449 9.03985925 16.90354384 9.02225983 0 9 C0 6.03 0 3.06 0 0 Z " fill="#393936" transform="translate(182,129)"/>
<path d="M0 0 C0.66 0 1.32 0 2 0 C1.1875 2.4375 1.1875 2.4375 0 5 C-0.99 5.33 -1.98 5.66 -3 6 C-3 6.66 -3 7.32 -3 8 C-3.99 8.495 -3.99 8.495 -5 9 C-5 9.99 -5 10.98 -5 12 C-5.66 12 -6.32 12 -7 12 C-7 11.34 -7 10.68 -7 10 C-8.32 10.99 -9.64 11.98 -11 13 C-11.66 12.67 -12.32 12.34 -13 12 C-11.21371169 10.32722165 -9.4214925 8.66175557 -7.625 7 C-6.86316406 6.28457031 -6.86316406 6.28457031 -6.0859375 5.5546875 C-2.2265625 2 -2.2265625 2 0 2 C0 1.34 0 0.68 0 0 Z " fill="#C8BEA6" transform="translate(829,817)"/>
<path d="M0 0 C1.44319692 0.90767102 2.87934106 1.82656106 4.3125 2.75 C5.11300781 3.26046875 5.91351562 3.7709375 6.73828125 4.296875 C9.00368861 6.00277761 10.42684167 7.65808145 12 10 C10.35 10.33 8.7 10.66 7 11 C6.731875 10.360625 6.46375 9.72125 6.1875 9.0625 C5.11332248 6.66868314 5.11332248 6.66868314 2 6 C0.8125 2.9375 0.8125 2.9375 0 0 Z " fill="#D0C8A8" transform="translate(739,212)"/>
<path d="M0 0 C0.33 0 0.66 0 1 0 C2.5197276 6.3552245 1.1663492 10.91708727 -1 17 C-1.66 17 -2.32 17 -3 17 C-2.36934845 11.2190275 -1.34844868 5.6556294 0 0 Z " fill="#C0B79D" transform="translate(899,679)"/>
<path d="M0 0 C0.33 0 0.66 0 1 0 C0.24205379 7.88264059 0.24205379 7.88264059 -3 11 C-3.99 11 -4.98 11 -6 11 C-4.55007731 6.89188572 -2.54592427 3.53144334 0 0 Z " fill="#C5BAA2" transform="translate(864,774)"/>
<path d="M0 0 C0.33 0 0.66 0 1 0 C1 1.98 1 3.96 1 6 C1.66 6 2.32 6 3 6 C2.34 8.97 1.68 11.94 1 15 C-1 13 -1 13 -1.1875 9.1875 C-1.11266813 6.02729249 -0.76920251 3.07681004 0 0 Z " fill="#C2BB9E" transform="translate(909,621)"/>
<path d="M0 0 C1 2 1 2 1 5 C-3.25663717 10.75221239 -3.25663717 10.75221239 -7 12 C-5.44298069 7.32894208 -2.91552627 3.91294315 0 0 Z " fill="#BEB59C" transform="translate(227,220)"/>
<path d="M0 0 C0.33 0.99 0.66 1.98 1 3 C-0.87109375 5.69921875 -0.87109375 5.69921875 -3.4375 8.6875 C-4.28183594 9.68136719 -5.12617187 10.67523437 -5.99609375 11.69921875 C-6.98802734 12.83810547 -6.98802734 12.83810547 -8 14 C-8.66 13.67 -9.32 13.34 -10 13 C-9.36191406 12.22914063 -8.72382812 11.45828125 -8.06640625 10.6640625 C-6.82697266 9.15972656 -6.82697266 9.15972656 -5.5625 7.625 C-4.73878906 6.62726562 -3.91507813 5.62953125 -3.06640625 4.6015625 C-1.01584166 2.20344705 -1.01584166 2.20344705 0 0 Z " fill="#2B261C" transform="translate(786,729)"/>
<path d="M0 0 C0 0.99 0 1.98 0 3 C-5.75 6 -5.75 6 -8 6 C-8.33 6.66 -8.66 7.32 -9 8 C-9.66 7.34 -10.32 6.68 -11 6 C-7.37 4.02 -3.74 2.04 0 0 Z " fill="#C4BDA4" transform="translate(805,837)"/>
<path d="M0 0 C-1.36983503 3.16115776 -1.9890638 3.9927092 -5 6 C-5.99 5.67 -6.98 5.34 -8 5 C-3.375 0 -3.375 0 0 0 Z " fill="#CBC1A5" transform="translate(841,809)"/>
<path d="M0 0 C0.33 0.99 0.66 1.98 1 3 C-0.9375 6.1875 -0.9375 6.1875 -3 9 C-4.32 8.67 -5.64 8.34 -7 8 C-4.69 5.36 -2.38 2.72 0 0 Z " fill="#C0B7A0" transform="translate(848,797)"/>
<path d="M0 0 C1.53445094 3.06890187 0.54984289 5.70094266 0 9 C-0.99 9.33 -1.98 9.66 -3 10 C-3 9.34 -3 8.68 -3 8 C-3.66 7.67 -4.32 7.34 -5 7 C-3.35 4.69 -1.7 2.38 0 0 Z " fill="#CAC0A6" transform="translate(857,785)"/>
<path d="M0 0 C0.33 0.99 0.66 1.98 1 3 C-0.32 3.99 -1.64 4.98 -3 6 C-3 5.34 -3 4.68 -3 4 C-4.65 4.33 -6.3 4.66 -8 5 C-6.37633534 1.75267068 -3.24612161 1.29844864 0 0 Z " fill="#DDD5AC" transform="translate(839,812)"/>
<path d="M0 0 C0.33 1.32 0.66 2.64 1 4 C-0.65 5.32 -2.3 6.64 -4 8 C-4.66 7.67 -5.32 7.34 -6 7 C-4.02 4.69 -2.04 2.38 0 0 Z " fill="#BFB79D" transform="translate(236,210)"/>
<path d="M0 0 C-0.75 1.9375 -0.75 1.9375 -2 4 C-4.125 4.75 -4.125 4.75 -6 5 C-6.66 4.01 -7.32 3.02 -8 2 C-5.09399739 0.74335022 -3.20395416 0 0 0 Z " fill="#C2BA9E" transform="translate(783,849)"/>
<path d="M0 0 C1.485 0.99 1.485 0.99 3 2 C2.625 4.4375 2.625 4.4375 2 7 C1.01 7.495 1.01 7.495 0 8 C0 5.36 0 2.72 0 0 Z " fill="#DBD0AC" transform="translate(777,733)"/>
<path d="M0 0 C2.35953094 2.35953094 2.49141413 3.77895617 3 7 C1.68 7.33 0.36 7.66 -1 8 C-1 5 -1 5 0 4 C-0.33 3.34 -0.66 2.68 -1 2 C-0.67 1.34 -0.34 0.68 0 0 Z " fill="#C7BD9E" transform="translate(779,265)"/>
<path d="M0 0 C1.32 0.33 2.64 0.66 4 1 C1.69 2.65 -0.62 4.3 -3 6 C-3 3 -3 3 -1.75 1.25 C-1.1725 0.8375 -0.595 0.425 0 0 Z " fill="#1D1A14" transform="translate(825,818)"/>
<path d="M0 0 C0.99 0.33 1.98 0.66 3 1 C1.68 2.32 0.36 3.64 -1 5 C-1.99 4.67 -2.98 4.34 -4 4 C-2.68 2.68 -1.36 1.36 0 0 Z " fill="#1F1D15" transform="translate(239,205)"/>
</svg>
